<svg xmlns="http://www.w3.org/2000/svg" viewBox="0 0 256 256">
<defs>
 <linearGradient id="b" x1="15%" y1="0%" x2="85%" y2="100%"><stop stop-color="#72f6ff"/><stop offset=".42" stop-color="#21bfe4"/><stop offset="1" stop-color="#0a3150"/></linearGradient>
 <linearGradient id="s" x1="0" y1="0" x2="1" y2="1"><stop stop-color="#dfffff"/><stop offset=".45" stop-color="#63eaff"/><stop offset="1" stop-color="#1983aa"/></linearGradient>
 <linearGradient id="p" x1="0" y1="0" x2="1" y2="1"><stop stop-color="#091622"/><stop offset="1" stop-color="#102f43"/></linearGradient>
 <filter id="g"><feGaussianBlur stdDeviation="7" result="c"/><feMerge><feMergeNode in="c"/><feMergeNode in="SourceGraphic"/></feMerge></filter>
</defs>
<g filter="url(#g)">
 <path d="M41 94c0-20 16-36 36-36h35l18-20c5-6 14-10 22-10h28c10 0 18 8 18 18v18h-12v8h8c17 0 30 13 30 30v83c0 23-18 41-41 41H78c-23 0-41-18-41-41V94Z" fill="url(#p)" stroke="#48e9ff" stroke-width="7" stroke-linejoin="round"/>
 <path d="M42 113h126c25 0 45 20 45 45v24c0 22-18 40-40 40H80c-22 0-39-17-39-39v-70Z" fill="url(#b)" opacity=".92"/>
 <path d="M42 114c7 7 16 10 27 10h97c17 0 32 7 47 19" fill="none" stroke="#dfffff" stroke-opacity=".85" stroke-width="5" stroke-linecap="round"/>
 <path d="M74 137c0-10 8-18 18-18h52c10 0 18 8 18 18v8c0 8-6 14-14 14H88c-8 0-14-6-14-14v-8Z" fill="url(#p)" stroke="#dfffff" stroke-width="5"/>
 <path d="M91 162v28M123 164v25M154 160v28" stroke="#0b3d54" stroke-width="7" stroke-linecap="round"/>
 <path d="M83 76h40c7 0 12 5 12 12H71c0-7 5-12 12-12Z" fill="url(#s)" stroke="#b9ffff" stroke-width="4"/>
 <circle cx="197" cy="89" r="10" fill="#fff" stroke="#39e7ff" stroke-width="4"/>
</g>
<path d="M49 209c23 18 48 24 76 24 26 0 51-6 73-20" fill="none" stroke="#39e7ff" stroke-width="3" opacity=".55"/>
</svg>